<svg width="300" height="300" viewBox="0 0 300 300" fill="none" xmlns="http://www.w3.org/2000/svg">
<g opacity="0.35">
<path d="M224.706 225.082C265.969 183.819 265.969 116.92 224.706 75.6571C183.444 34.3947 116.544 34.3947 75.2819 75.6571C34.0195 116.92 34.0195 183.819 75.2819 225.082C116.544 266.344 183.444 266.344 224.706 225.082Z" fill="white"/>
</g>
<g opacity="0.9">
<path d="M224.706 225.082C265.969 183.819 265.969 116.92 224.706 75.6571C183.444 34.3947 116.544 34.3947 75.2819 75.6571C34.0195 116.92 34.0195 183.819 75.2819 225.082C116.544 266.344 183.444 266.344 224.706 225.082Z" stroke="black" stroke-width="5" stroke-miterlimit="10"/>
</g>
<g opacity="0.9">
<path d="M151.2 166.96C158.31 166.96 164.08 161.4 164.33 154.3L166.2 102.87C166.33 98.77 164.83 94.9 161.97 91.95C159.12 89.01 155.29 87.39 151.19 87.39C147.09 87.39 143.26 89.01 140.41 91.95C137.56 94.89 136.06 98.77 136.18 102.87L138.05 154.29C138.32 161.39 144.09 166.96 151.2 166.96Z" fill="#BEE81E" stroke="black" stroke-width="5" stroke-miterlimit="10"/>
<path d="M151.2 212.72C159.49 212.72 166.21 206 166.21 197.71C166.21 189.42 159.49 182.7 151.2 182.7C142.91 182.7 136.19 189.42 136.19 197.71C136.19 206 142.91 212.72 151.2 212.72Z" fill="#BEE81E" stroke="black" stroke-width="5" stroke-miterlimit="10"/>
</g>
</svg>
