<svg width="246" height="113" viewBox="0 0 246 113" fill="none" xmlns="http://www.w3.org/2000/svg">
<path d="M166.599 35.03L137.099 31.3L124.449 4.24001C123.719 2.68001 121.51 2.68001 120.78 4.24001L108.129 31.3L78.6295 35.03C76.9295 35.24 76.2495 37.35 77.4895 38.53L99.2495 59.19L93.6195 88.33C93.2895 90.03 95.0795 91.34 96.5895 90.5L122.62 76.1L148.65 90.5C150.15 91.33 151.94 90.02 151.62 88.33L145.99 59.19L167.759 38.53C168.979 37.35 168.299 35.24 166.599 35.03Z" fill="black" stroke="#BEE81E" stroke-width="5" stroke-miterlimit="10"/>
<path d="M241.4 70.6L220.6 67.97L211.68 48.89C211.17 47.79 209.61 47.79 209.1 48.89L200.18 67.97L179.38 70.6C178.18 70.75 177.7 72.24 178.58 73.07L193.92 87.63L189.95 108.17C189.72 109.37 190.98 110.29 192.04 109.7L210.39 99.55L228.74 109.7C229.8 110.29 231.06 109.36 230.83 108.17L226.86 87.63L242.2 73.07C243.08 72.23 242.6 70.75 241.4 70.6Z" fill="black" stroke="#BEE81E" stroke-width="5" stroke-miterlimit="10"/>
<path d="M65.8395 70.6L45.0395 67.97L36.1195 48.89C35.6095 47.79 34.0495 47.79 33.5395 48.89L24.6195 67.97L3.81954 70.6C2.61954 70.75 2.13954 72.24 3.01954 73.07L18.3595 87.63L14.3895 108.17C14.1595 109.37 15.4195 110.29 16.4795 109.7L34.8295 99.55L53.1795 109.7C54.2395 110.29 55.4995 109.36 55.2695 108.17L51.2995 87.63L66.6395 73.07C67.5195 72.23 67.0395 70.75 65.8395 70.6Z" fill="black" stroke="#BEE81E" stroke-width="5" stroke-miterlimit="10"/>
</svg>
