<svg width="42" height="42" viewBox="0 0 42 42" fill="none" xmlns="http://www.w3.org/2000/svg">
<path d="M0 8C0 3.58172 3.58172 0 8 0H34C38.4183 0 42 3.58172 42 8V34C42 38.4183 38.4183 42 34 42H8C3.58172 42 0 38.4183 0 34V8Z" fill="#1A56DB"/>
<path d="M16.25 18.75C16.25 16.1236 18.3736 14 21 14C23.6264 14 25.75 16.1236 25.75 18.75C25.75 20.169 24.9854 21.9284 23.9934 23.592C23.014 25.2345 21.8643 26.7005 21.1929 27.513C21.0927 27.6325 20.914 27.6323 20.8141 27.5124L20.43 27.8325L20.8145 27.5129C20.14 26.7013 18.9881 25.2349 18.0075 23.5919C17.0146 21.9284 16.25 20.1689 16.25 18.75ZM18.625 18.75C18.625 20.0611 19.6889 21.125 21 21.125C22.3111 21.125 23.375 20.0611 23.375 18.75C23.375 17.4389 22.3111 16.375 21 16.375C19.6889 16.375 18.625 17.4389 18.625 18.75Z" fill="white" stroke="white"/>
</svg>
