<svg width="21" height="21" viewBox="0 0 21 21" fill="none" xmlns="http://www.w3.org/2000/svg">
    <path d="M16.692 11.316a6.5 6.5 0 0 0 .058-.816 6.5 6.5 0 0 0-.058-.817l1.758-1.375a.42.42 0 0 0 .1-.533L16.883 4.89c-.1-.183-.325-.25-.508-.183l-2.075.833a6.088 6.088 0 0 0-1.408-.816l-.317-2.208a.406.406 0 0 0-.408-.35H8.833a.406.406 0 0 0-.408.35l-.317 2.208a6.402 6.402 0 0 0-1.408.817l-2.075-.834a.406.406 0 0 0-.508.183L2.45 7.775a.41.41 0 0 0 .1.533l1.758 1.375a6.609 6.609 0 0 0-.058.817c0 .275.025.55.058.816L2.55 12.691a.42.42 0 0 0-.1.534l1.667 2.883c.1.183.325.25.508.183l2.075-.833c.433.333.9.609 1.408.817l.317 2.208c.025.2.2.35.408.35h3.334c.208 0 .383-.15.408-.35l.317-2.208a6.4 6.4 0 0 0 1.408-.817l2.075.833c.192.075.408 0 .508-.183l1.667-2.883a.42.42 0 0 0-.1-.534l-1.758-1.375zm-6.192 2.1A2.92 2.92 0 0 1 7.583 10.5 2.92 2.92 0 0 1 10.5 7.583a2.92 2.92 0 0 1 2.917 2.917 2.92 2.92 0 0 1-2.917 2.916z" fill="#374151"/>
</svg>
